<svg width="24" height="24" viewBox="0 0 24 24" fill="none" xmlns="http://www.w3.org/2000/svg">
  <circle cx="12" cy="12" r="12" fill="#4285F4"/>
  <path d="M12.24 10.285V13.4h3.035c-.135 1.045-.54 1.82-1.135 2.385-.51.48-1.28.995-2.9.995-2.345 0-4.18-1.89-4.18-4.24 0-2.35 1.835-4.24 4.18-4.24 1.275 0 2.19.5 2.87 1.14l2.41-2.32c-1.46-1.39-3.355-2.24-5.28-2.24-4.125 0-7.52 3.24-7.52 7.66s3.395 7.66 7.52 7.66c2.16 0 3.86-.705 5.145-2.05 1.32-1.345 1.725-3.24 1.725-4.77 0-.48-.045-.915-.135-1.315H12.24z" fill="white"/>
</svg>