<svg width="32" height="32" viewBox="0 0 32 32" fill="none" xmlns="http://www.w3.org/2000/svg">
  <rect width="32" height="32" rx="16" fill="#4285F4"/>
  <path d="M16 8c-4.418 0-8 3.582-8 8s3.582 8 8 8c2.209 0 4.209-.895 5.657-2.343l-2.829-2.829C17.895 19.761 16.99 20 16 20c-2.209 0-4-1.791-4-4s1.791-4 4-4c1.105 0 2.105.448 2.828 1.172l2.829-2.829C20.209 8.895 18.209 8 16 8z" fill="white"/>
  <path d="M24 15h-3v-2h3c.552 0 1 .448 1 1s-.448 1-1 1z" fill="white"/>
  <path d="M24 17h-3v2h3c.552 0 1-.448 1-1s-.448-1-1-1z" fill="white"/>
  <circle cx="16" cy="16" r="3" fill="#4285F4"/>
  <circle cx="16" cy="16" r="1.5" fill="white"/>
</svg>